<?xml version="1.0" encoding="iso-8859-1"?>
<!-- Generator: Adobe Illustrator 19.0.0, SVG Export Plug-In . SVG Version: 6.00 Build 0)  -->
<svg version="1.1" id="Capa_1" xmlns="http://www.w3.org/2000/svg" xmlns:xlink="http://www.w3.org/1999/xlink" x="0px" y="0px"
	 viewBox="0 0 512 512" style="enable-background:new 0 0 512 512;" xml:space="preserve">
<circle style="fill:#35CCFF;" cx="256" cy="256" r="256"/>
<path style="fill:#00BAFF;" d="M512,256c0-36.588-7.692-71.375-21.521-102.854L437,99.667L75,340.333l171.472,171.472
	c3.164,0.116,6.336,0.194,9.528,0.194C397.385,512,512,397.385,512,256z"/>
<rect x="219" y="330.33" style="fill:#1A1A1A;" width="74" height="59.33"/>
<rect x="256.5" y="330.33" width="36.5" height="59.33"/>
<rect x="85" y="109.67" style="fill:#FFFFFF;" width="342" height="220.67"/>
<rect x="256.5" y="109.67" style="fill:#E0E0E0;" width="170.5" height="220.67"/>
<path style="fill:#333333;" d="M437,340.333H75V99.667h362V340.333z M95,320.333h322V119.667H95V320.333z"/>
<polygon style="fill:#1A1A1A;" points="437,99.667 256.5,99.667 256.5,119.667 417,119.667 417,320.333 256.5,320.333 
	256.5,340.333 437,340.333 "/>
<rect x="204.67" y="379.67" style="fill:#333333;" width="102.67" height="20"/>
<rect x="256.5" y="379.67" style="fill:#1A1A1A;" width="50.833" height="20"/>
<rect x="93.67" y="119.67" style="fill:#4D4D4D;" width="132.67" height="200.67"/>
<g>
	<rect x="112" y="144.27" style="fill:#E6E6E6;" width="92.67" height="15"/>
	<rect x="152" y="178.61" style="fill:#E6E6E6;" width="52.667" height="15"/>
</g>
<rect x="112" y="178.61" style="fill:#FFDC00;" width="28.667" height="15"/>
<g>
	<rect x="112" y="214.11" style="fill:#CCCCCC;" width="92.67" height="15"/>
	<rect x="112" y="281.94" style="fill:#CCCCCC;" width="92.67" height="15"/>
</g>
<rect x="152" y="248.44" style="fill:#E6E6E6;" width="52.667" height="15"/>
<rect x="112" y="248.44" style="fill:#FF3F84;" width="28.667" height="15"/>
<rect x="244.67" y="139.77" style="fill:#97CC52;" width="152.67" height="53.23"/>
<rect x="256.5" y="139.77" style="fill:#60C344;" width="140.83" height="53.23"/>
<rect x="244.67" y="220" style="fill:#CCCCCC;" width="152.67" height="16.04"/>
<rect x="256.5" y="220" style="fill:#B3B3B3;" width="140.83" height="16.04"/>
<rect x="244.67" y="249.12" style="fill:#CCCCCC;" width="152.67" height="16.04"/>
<rect x="256.5" y="249.12" style="fill:#B3B3B3;" width="140.83" height="16.04"/>
<rect x="244.67" y="278.23" style="fill:#CCCCCC;" width="152.67" height="16.04"/>
<rect x="256.5" y="278.23" style="fill:#B3B3B3;" width="140.83" height="16.04"/>
<g>
</g>
<g>
</g>
<g>
</g>
<g>
</g>
<g>
</g>
<g>
</g>
<g>
</g>
<g>
</g>
<g>
</g>
<g>
</g>
<g>
</g>
<g>
</g>
<g>
</g>
<g>
</g>
<g>
</g>
</svg>
