<svg id="Layer_5" enable-background="new 0 0 64 64" height="512" viewBox="0 0 64 64" width="512" xmlns="http://www.w3.org/2000/svg"><g><g><g><path d="m37 39v1c0 1.66-1.34 3-3 3-.83 0-1.58-.34-2.12-.88s-.88-1.29-.88-2.12v-1z" fill="#aab2bd"/></g><g><path d="m57 39v1c0 1.66-1.34 3-3 3-.83 0-1.58-.34-2.12-.88s-.88-1.29-.88-2.12v-1z" fill="#aab2bd"/></g><g><path d="m46.06 28c.01-.02.01-.03.01-.05.45-3.59 3.4-6.49 7-6.9 4.83-.54 8.93 3.22 8.93 7.95 0 2.83-1.47 5.31-3.68 6.73-.84.54-1.32 1.48-1.32 2.48v.79h-6v-.75c0-1-.46-1.97-1.3-2.51-2.49-1.58-4.03-4.5-3.64-7.74z" fill="#ffeaa7"/></g><g><path d="m41.94 28c.04.33.06.66.06 1 0 2.83-1.47 5.31-3.68 6.73-.84.54-1.32 1.48-1.32 2.48v.79h-6v-.75c0-1-.46-1.97-1.3-2.51-2.5-1.59-4.05-4.53-3.63-7.79.45-3.59 3.4-6.49 7-6.9 4.48-.5 8.34 2.7 8.87 6.95z" fill="#ffeaa7"/></g><g><path d="m25.91 10.09c2.41.44 4.22 2.61 4.08 5.18-.14 2.69-2.51 4.73-5.21 4.73h-17.57c-2.61 0-4.94-1.91-5.19-4.51-.25-2.64 1.56-4.91 4.01-5.39-.02-.2-.03-.4-.03-.6 0-3.04 2.46-5.5 5.5-5.5.78 0 1.52.16 2.19.46 1.29-1.5 3.18-2.46 5.31-2.46 3.87 0 7 3.13 7 7 0 .37-.04.73-.09 1.09z" fill="#e6e9ed"/></g><g><path d="m26 47v6l-1.6.57c-.15.43-.33.85-.53 1.26l.74 1.53-4.25 4.25-1.53-.74c-.41.2-.83.38-1.26.53l-.57 1.6h-6l-.57-1.6c-.43-.15-.85-.33-1.26-.53l-1.53.74-4.25-4.25.74-1.53c-.2-.41-.38-.83-.53-1.26l-1.6-.57v-6l1.6-.57c.15-.43.33-.85.53-1.26l-.74-1.53 4.25-4.25 1.53.74c.41-.2.83-.38 1.26-.53l.57-1.6h6l.57 1.6c.43.15.85.33 1.26.53l1.53-.74 4.25 4.25-.74 1.53c.2.41.38.83.53 1.26zm-5 3c0-3.87-3.13-7-7-7s-7 3.13-7 7 3.13 7 7 7 7-3.13 7-7z" fill="#ffc729"/></g><g><path d="m14 43c3.87 0 7 3.13 7 7s-3.13 7-7 7-7-3.13-7-7 3.13-7 7-7zm3 7c0-1.66-1.34-3-3-3s-3 1.34-3 3 1.34 3 3 3 3-1.34 3-3z" fill="#fcd770"/></g></g><g><path d="m59.994 22.287c-1.909-1.706-4.48-2.52-7.039-2.228-3.772.426-6.902 3.288-7.731 6.941h-2.455c-.413-1.805-1.371-3.459-2.775-4.713-1.909-1.706-4.481-2.52-7.039-2.228-3.772.426-6.902 3.288-7.731 6.941h-14.224c-.551 0-1-.449-1-1s.449-1 1-1h6c1.654 0 3-1.346 3-3s-1.346-3-3-3h-9.785c-2.16 0-4.003-1.583-4.196-3.604-.197-2.064 1.182-3.92 3.207-4.317l.899-.177-.097-.911c-.017-.161-.028-.325-.028-.491 0-2.481 2.019-4.5 4.5-4.5.62 0 1.224.126 1.795.375l.679.295.481-.563c1.145-1.339 2.802-2.107 4.545-2.107 3.309 0 6 2.691 6 6 0 .284-.026.582-.081.937l-.15.962.958.176c1.967.361 3.373 2.142 3.269 4.141-.11 2.086-2 3.784-4.215 3.784h-2.781v2h2.781c3.316 0 6.044-2.495 6.21-5.681.14-2.683-1.533-5.103-4.001-5.971.007-.119.01-.234.01-.348 0-4.411-3.589-8-8-8-2.093 0-4.091.827-5.582 2.29-.62-.193-1.263-.29-1.918-.29-3.532 0-6.415 2.832-6.498 6.344-2.571.9-4.241 3.444-3.974 6.242.289 3.036 3.007 5.414 6.187 5.414h9.785c.551 0 1 .449 1 1s-.449 1-1 1h-6c-1.654 0-3 1.346-3 3s1.346 3 3 3h14.008c-.001 3.068 1.519 5.902 4.152 7.583.518.331.84.97.84 1.667v1.75c0 2.206 1.794 4 4 4s4-1.794 4-4v-1.791c0-.68.322-1.293.862-1.64 2.591-1.666 4.138-4.496 4.138-7.569h2.008c-.001 3.068 1.519 5.902 4.152 7.583.518.331.84.97.84 1.667v1.75c0 1.859 1.28 3.411 3 3.858v4.142c0 .552-.449 1-1 1h-6.586l2.293-2.293-1.414-1.414-4.707 4.707 4.707 4.707 1.414-1.414-2.293-2.293h6.586c1.654 0 3-1.346 3-3v-4.142c1.72-.447 3-1.999 3-3.858v-1.791c0-.68.322-1.293.862-1.64 2.591-1.666 4.138-4.496 4.138-7.569 0-2.56-1.096-5.007-3.006-6.713zm-25.994 19.713c-1.103 0-2-.897-2-2h4c0 1.103-.897 2-2 2zm3.78-7.112c-1.057.679-1.703 1.833-1.768 3.112h-4.028c-.074-1.291-.711-2.439-1.749-3.103-2.308-1.475-3.525-4.088-3.177-6.822.399-3.137 2.974-5.673 6.12-6.029.28-.031.556-.046.83-.046 1.725 0 3.354.617 4.653 1.778 1.487 1.327 2.339 3.231 2.339 5.222 0 2.39-1.204 4.591-3.22 5.888zm16.22 7.112c-1.103 0-2-.897-2-2h4c0 1.103-.897 2-2 2zm3.78-7.112c-1.057.679-1.703 1.833-1.768 3.112h-4.028c-.074-1.291-.711-2.439-1.749-3.103-2.308-1.475-3.525-4.088-3.177-6.822.399-3.137 2.974-5.673 6.12-6.029.28-.031.556-.046.83-.046 1.725 0 3.354.617 4.653 1.778 1.487 1.327 2.339 3.231 2.339 5.222 0 2.39-1.204 4.591-3.22 5.888z"/><path d="m14 42c-4.411 0-8 3.589-8 8s3.589 8 8 8 8-3.589 8-8-3.589-8-8-8zm0 14c-3.309 0-6-2.691-6-6s2.691-6 6-6 6 2.691 6 6-2.691 6-6 6z"/><path d="m14 46c-2.206 0-4 1.794-4 4s1.794 4 4 4 4-1.794 4-4-1.794-4-4-4zm0 6c-1.103 0-2-.897-2-2s.897-2 2-2 2 .897 2 2-.897 2-2 2z"/><path d="m24.978 45.178.836-1.749-5.244-5.242-1.748.836c-.157-.069-.314-.135-.471-.196l-.643-1.827h-7.415l-.645 1.826c-.157.062-.314.127-.471.196l-1.747-.835-5.244 5.242.836 1.749c-.069.155-.134.313-.196.471l-1.826.643v7.416l1.826.644c.062.158.127.315.196.471l-.836 1.749 5.244 5.242 1.748-.836c.157.069.314.135.471.196l.643 1.826h7.415l.645-1.826c.157-.062.314-.127.471-.196l1.748.836 5.244-5.242-.836-1.749c.069-.155.134-.313.196-.471l1.825-.644v-7.416l-1.826-.644c-.062-.158-.127-.315-.196-.47zm.022 7.114-1.392.491-.157.458c-.132.385-.292.771-.477 1.146l-.214.436.638 1.335-3.242 3.242-1.334-.639-.435.214c-.381.187-.766.347-1.146.477l-.458.156-.491 1.392h-4.585l-.491-1.393-.458-.156c-.38-.13-.765-.29-1.146-.477l-.435-.214-1.334.639-3.242-3.242.638-1.335-.214-.436c-.185-.375-.345-.761-.477-1.146l-.157-.458-1.391-.49v-4.584l1.392-.491.157-.458c.132-.385.292-.771.477-1.146l.214-.436-.638-1.335 3.242-3.242 1.334.639.435-.214c.381-.187.766-.347 1.146-.477l.458-.156.491-1.392h4.585l.491 1.393.458.156c.38.13.765.29 1.146.477l.435.214 1.334-.639 3.242 3.242-.638 1.335.214.436c.185.375.345.761.477 1.146l.157.458 1.391.49z"/><path d="m29 49h2v2h-2z"/><path d="m33 49h2v2h-2z"/><path d="m37 49h2v2h-2z"/><path d="m30.168 27.445 1.664 1.11 1.168-1.752v7.197h2v-10h-2.535z"/><path d="m54 24c-1.654 0-3 1.346-3 3v1h2v-1c0-.551.449-1 1-1s1 .449 1 1v.171c0 .267-.104.519-.293.708l-3.707 3.707v2.414h6v-2h-3.586l2.707-2.707c.567-.566.879-1.32.879-2.122v-.171c0-1.654-1.346-3-3-3z"/></g></g></svg>