<svg height="512" viewBox="0 0 128 128" width="512" xmlns="http://www.w3.org/2000/svg"><path d="m117.932 87.349v-2.326a6.341 6.341 0 0 0 -6.332-6.333h-14.865v-37.859a.993.993 0 0 0 -.334-.744l-27.46-27.461a1 1 0 0 0 -.707-.293h-51.165a3 3 0 0 0 -3 3v101.334a3 3 0 0 0 3 3h94.531a6.342 6.342 0 0 0 6.334-6.334v-2.325a6.327 6.327 0 0 0 -2.934-5.333 6.331 6.331 0 0 0 2.932-5.334v-2.325a6.327 6.327 0 0 0 -2.932-5.333 6.331 6.331 0 0 0 2.932-5.334z" fill="#e6e7e8"/><path d="m73.569 109.333v-2.325a5.334 5.334 0 0 1 5.333-5.334 5.333 5.333 0 0 1 -5.333-5.333v-2.325a5.334 5.334 0 0 1 5.331-5.334 5.333 5.333 0 0 1 -5.333-5.333v-2.325a5.334 5.334 0 0 1 5.333-5.334h12.835v-38.857l-27.5-27.5h-51.166a2 2 0 0 0 -2 2v101.334a2 2 0 0 0 2 2h65.831a5.334 5.334 0 0 1 -5.331-5.334z" fill="#d4fbff"/><path d="m26.081 70.908a9.605 9.605 0 0 1 -3.346-1.664 1.823 1.823 0 0 1 -.314-2.535 1.11 1.11 0 0 1 .885-.465 2.45 2.45 0 0 1 1.23.42 8.992 8.992 0 0 0 2.7 1.35 10.879 10.879 0 0 0 3.121.42 6.144 6.144 0 0 0 3.36-.765 2.5 2.5 0 0 0 1.17-2.235 1.922 1.922 0 0 0 -1.1-1.755 14.541 14.541 0 0 0 -3.645-1.185 21.57 21.57 0 0 1 -4.29-1.32 6.076 6.076 0 0 1 -2.491-1.92 4.972 4.972 0 0 1 -.839-2.971 5.581 5.581 0 0 1 1.05-3.329 6.935 6.935 0 0 1 2.925-2.3 10.37 10.37 0 0 1 4.215-.824 10.471 10.471 0 0 1 6.99 2.279 2.268 2.268 0 0 1 .555.646 1.716 1.716 0 0 1 .165.8 1.69 1.69 0 0 1 -.375 1.095 1.109 1.109 0 0 1 -.885.464 1.662 1.662 0 0 1 -.556-.089 4.419 4.419 0 0 1 -.674-.331 10.206 10.206 0 0 0 -2.385-1.334 8.09 8.09 0 0 0 -2.835-.435 5.563 5.563 0 0 0 -3.226.825 2.642 2.642 0 0 0 -1.184 2.295 2.1 2.1 0 0 0 1.05 1.89 12.306 12.306 0 0 0 3.57 1.23 24.209 24.209 0 0 1 4.339 1.335 6.429 6.429 0 0 1 2.55 1.875 4.51 4.51 0 0 1 .884 2.851 5.441 5.441 0 0 1 -1.034 3.284 6.752 6.752 0 0 1 -2.91 2.22 10.947 10.947 0 0 1 -4.306.8 15.137 15.137 0 0 1 -4.364-.622z" fill="#fa759e"/><path d="m59.575 74.193a2.018 2.018 0 0 1 .33 1.051 1.378 1.378 0 0 1 -.54 1.125 1.954 1.954 0 0 1 -1.259.435 2.144 2.144 0 0 1 -1.021-.255 1.975 1.975 0 0 1 -.779-.766l-1.771-2.909a2.612 2.612 0 0 0 -1.094-1.02 4.016 4.016 0 0 0 -1.755-.33 10.45 10.45 0 0 1 -5.356-1.324 8.824 8.824 0 0 1 -3.495-3.78 14.077 14.077 0 0 1 0-11.505 8.848 8.848 0 0 1 3.495-3.765 10.45 10.45 0 0 1 5.356-1.32 10.39 10.39 0 0 1 5.325 1.32 8.846 8.846 0 0 1 3.494 3.765 12.634 12.634 0 0 1 1.23 5.745 12.456 12.456 0 0 1 -1.424 6.14 8.47 8.47 0 0 1 -4.066 3.734 4.336 4.336 0 0 1 2.281 1.981zm-3.344-7.769a8.928 8.928 0 0 0 1.634-5.76 8.864 8.864 0 0 0 -1.634-5.745 5.555 5.555 0 0 0 -4.545-1.995 5.586 5.586 0 0 0 -4.576 1.995 8.864 8.864 0 0 0 -1.634 5.745 8.928 8.928 0 0 0 1.634 5.76 5.568 5.568 0 0 0 4.576 2.01 5.537 5.537 0 0 0 4.545-2.01z" fill="#fa759e"/><path d="m66.115 70.774a1.783 1.783 0 0 1 -.479-1.32v-17.58a1.8 1.8 0 0 1 1.92-1.92 1.929 1.929 0 0 1 1.425.525 1.889 1.889 0 0 1 .525 1.4v16.2h8.43q1.8 0 1.8 1.59t-1.8 1.59h-10.47a1.828 1.828 0 0 1 -1.351-.485z" fill="#fa759e"/><path d="m13.069 12.333h54.165l-3-3h-51.165a2 2 0 0 0 -2 2v3a2 2 0 0 1 2-2z" fill="#fff"/><path d="m64.236 9.333v25.5a2 2 0 0 0 2 2h25.5z" fill="#6dc9f7"/><rect fill="#fa759e" height="12.992" rx="5.333" width="39.362" x="73.569" y="101.674"/><path d="m100.285 106.448a1.723 1.723 0 1 0 1.723 1.722 1.723 1.723 0 0 0 -1.723-1.722z" fill="#ffd7e5"/><path d="m106.443 106.448a1.723 1.723 0 1 0 1.723 1.722 1.722 1.722 0 0 0 -1.723-1.722z" fill="#ffd7e5"/><rect fill="#fa759e" height="12.992" rx="5.333" width="39.362" x="73.569" y="88.682"/><path d="m100.285 93.456a1.723 1.723 0 1 0 1.723 1.722 1.723 1.723 0 0 0 -1.723-1.722z" fill="#ffd7e5"/><path d="m106.443 93.456a1.723 1.723 0 1 0 1.723 1.722 1.722 1.722 0 0 0 -1.723-1.722z" fill="#ffd7e5"/><rect fill="#fa759e" height="12.992" rx="5.333" width="39.362" x="73.569" y="75.69"/><g fill="#3a2c60"><path d="m33.169 66.832a5.241 5.241 0 0 1 -2.813.6 9.9 9.9 0 0 1 -2.836-.379 8.224 8.224 0 0 1 -2.466-1.246 3.373 3.373 0 0 0 -1.748-.565 2.087 2.087 0 0 0 -1.663.836 2.824 2.824 0 0 0 .461 3.94 10.628 10.628 0 0 0 3.69 1.846 16.172 16.172 0 0 0 4.651.658 11.963 11.963 0 0 0 4.7-.875 7.754 7.754 0 0 0 3.33-2.553 6.453 6.453 0 0 0 1.225-3.869 5.509 5.509 0 0 0 -1.1-3.464 7.448 7.448 0 0 0 -2.937-2.177 25.137 25.137 0 0 0 -4.517-1.4 11.073 11.073 0 0 1 -3.26-1.1 1.115 1.115 0 0 1 -.581-1.043 1.644 1.644 0 0 1 .756-1.475 4.646 4.646 0 0 1 2.654-.645 7.138 7.138 0 0 1 2.485.379 9.123 9.123 0 0 1 2.146 1.2c.031.022.062.042.095.061a5.162 5.162 0 0 0 .835.4 2.648 2.648 0 0 0 .891.147 2.082 2.082 0 0 0 1.663-.837 2.672 2.672 0 0 0 .6-1.722 2.7 2.7 0 0 0 -.28-1.26 3.223 3.223 0 0 0 -.8-.945 11.483 11.483 0 0 0 -7.635-2.515 11.419 11.419 0 0 0 -4.618.909 7.941 7.941 0 0 0 -3.335 2.629 6.586 6.586 0 0 0 -1.237 3.911 5.967 5.967 0 0 0 1.027 3.555 7.073 7.073 0 0 0 2.889 2.246 22.669 22.669 0 0 0 4.485 1.386 13.216 13.216 0 0 1 3.374 1.086.925.925 0 0 1 .585.883 1.512 1.512 0 0 1 -.716 1.398zm1.111-4.025a15.276 15.276 0 0 0 -3.923-1.29 20.794 20.794 0 0 1 -4.087-1.253 5.126 5.126 0 0 1 -2.092-1.593 4.022 4.022 0 0 1 -.652-2.388 4.565 4.565 0 0 1 .864-2.748 5.984 5.984 0 0 1 2.51-1.962 9.448 9.448 0 0 1 3.813-.739 9.554 9.554 0 0 1 6.343 2.041 1.323 1.323 0 0 1 .315.346.756.756 0 0 1 .052.333.7.7 0 0 1 -.154.468c-.052.064-.088.087-.106.091a.653.653 0 0 1 -.224-.033 3.082 3.082 0 0 1 -.463-.228 11.074 11.074 0 0 0 -2.576-1.428 9.09 9.09 0 0 0 -3.187-.5 6.552 6.552 0 0 0 -3.8 1 3.649 3.649 0 0 0 -1.613 3.116 3.1 3.1 0 0 0 1.517 2.736 13.028 13.028 0 0 0 3.883 1.36 23.2 23.2 0 0 1 4.151 1.274 5.5 5.5 0 0 1 2.164 1.572 3.52 3.52 0 0 1 .674 2.239 4.425 4.425 0 0 1 -.843 2.7 5.789 5.789 0 0 1 -2.492 1.887 10.017 10.017 0 0 1 -3.915.716 14.181 14.181 0 0 1 -4.077-.574 8.724 8.724 0 0 1 -3.037-1.51.687.687 0 0 1 -.284-.636.7.7 0 0 1 .154-.468c.052-.064.088-.088.106-.092a1.365 1.365 0 0 1 .645.231 9.994 9.994 0 0 0 3 1.5 11.93 11.93 0 0 0 3.407.462 7.033 7.033 0 0 0 3.908-.928 3.506 3.506 0 0 0 1.622-3.072 2.9 2.9 0 0 0 -1.603-2.63z"/><path d="m61.185 67.284a13.491 13.491 0 0 0 1.55-6.62 13.656 13.656 0 0 0 -1.335-6.194 9.879 9.879 0 0 0 -3.883-4.18 12.456 12.456 0 0 0 -11.688 0 9.877 9.877 0 0 0 -3.885 4.18 15.062 15.062 0 0 0 0 12.4 9.842 9.842 0 0 0 3.886 4.2 11.476 11.476 0 0 0 5.859 1.456 3.093 3.093 0 0 1 1.311.225 1.632 1.632 0 0 1 .681.643l1.762 2.895a2.976 2.976 0 0 0 1.173 1.144 3.154 3.154 0 0 0 1.49.371 2.945 2.945 0 0 0 1.888-.656 2.377 2.377 0 0 0 .911-1.9 3.006 3.006 0 0 0 -.476-1.571l-.006-.01-1.04-1.667a6.165 6.165 0 0 0 -1.157-1.428 9.549 9.549 0 0 0 2.959-3.288zm-5.345 2.335a1 1 0 0 0 .077 1.859 3.358 3.358 0 0 1 1.76 1.566l1.047 1.674a1.059 1.059 0 0 1 .181.526.384.384 0 0 1 -.165.345 1.079 1.079 0 0 1 -1.185.077 1.011 1.011 0 0 1 -.4-.4l-1.771-2.91a3.619 3.619 0 0 0 -1.51-1.4 4.924 4.924 0 0 0 -2.193-.431 9.518 9.518 0 0 1 -4.852-1.184 7.772 7.772 0 0 1 -3.1-3.363 13.089 13.089 0 0 1 0-10.609 7.8 7.8 0 0 1 3.106-3.35 10.466 10.466 0 0 1 9.673 0 7.8 7.8 0 0 1 3.105 3.349 11.7 11.7 0 0 1 1.123 5.3 11.547 11.547 0 0 1 -1.3 5.65 7.429 7.429 0 0 1 -3.596 3.301z"/><path d="m51.686 51.924a6.568 6.568 0 0 0 -5.349 2.361 9.848 9.848 0 0 0 -1.861 6.379 9.911 9.911 0 0 0 1.859 6.391 6.547 6.547 0 0 0 5.351 2.379 6.516 6.516 0 0 0 5.32-2.378 9.911 9.911 0 0 0 1.859-6.391 9.848 9.848 0 0 0 -1.865-6.38 6.532 6.532 0 0 0 -5.314-2.361zm3.769 13.869a4.548 4.548 0 0 1 -3.769 1.641 4.58 4.58 0 0 1 -3.8-1.641 8.019 8.019 0 0 1 -1.41-5.129 7.954 7.954 0 0 1 1.408-5.111 4.6 4.6 0 0 1 3.8-1.629 4.565 4.565 0 0 1 3.771 1.629 7.954 7.954 0 0 1 1.408 5.111 8.019 8.019 0 0 1 -1.408 5.129z"/><path d="m69.687 49.771a2.935 2.935 0 0 0 -5.051 2.1v17.58a2.75 2.75 0 0 0 .773 2.028 2.8 2.8 0 0 0 2.057.772h10.47a2.6 2.6 0 1 0 0-5.18h-7.43v-15.2a2.9 2.9 0 0 0 -.819-2.1zm8.249 19.3c.8 0 .8.235.8.59s0 .59-.8.59h-10.47c-.456 0-.6-.142-.644-.188a.78.78 0 0 1 -.185-.612v-17.577a.816.816 0 0 1 .92-.92.927.927 0 0 1 .717.231.888.888 0 0 1 .233.689v16.2a1 1 0 0 0 1 1z"/><path d="m11.068 93.4a1 1 0 0 0 1-1v-9.5a1 1 0 0 0 -2 0v9.5a1 1 0 0 0 1 1z"/><path d="m113.931 83.349v-2.325a6.34 6.34 0 0 0 -6.333-6.333h-14.863v-37.86a1 1 0 0 0 -.335-.746l-27.459-27.459a1 1 0 0 0 -.707-.293h-51.166a3 3 0 0 0 -3 3v67.067a1 1 0 0 0 2 0v-67.067a1 1 0 0 1 1-1h50.166v24.5a3 3 0 0 0 3 3h24.5v36.858h-11.834a6.34 6.34 0 0 0 -6.333 6.333v2.325a6.333 6.333 0 0 0 2.944 5.342 6.312 6.312 0 0 0 -2.944 5.325v2.325a6.333 6.333 0 0 0 2.944 5.342 6.312 6.312 0 0 0 -2.944 5.325v2.325a6.3 6.3 0 0 0 1.727 4.333h-61.226a1 1 0 0 1 -1-1v-16.096a1 1 0 0 0 -2 0v16.1a3 3 0 0 0 3 3h94.532a6.34 6.34 0 0 0 6.333-6.333v-2.325a6.315 6.315 0 0 0 -2.944-5.326 6.327 6.327 0 0 0 2.944-5.341v-2.329a6.315 6.315 0 0 0 -2.944-5.326 6.327 6.327 0 0 0 2.942-5.341zm-48.7-48.516v-23.086l24.088 24.086h-23.085a1 1 0 0 1 -1-1zm46.7 72.175v2.325a4.338 4.338 0 0 1 -4.333 4.333h-28.698a4.338 4.338 0 0 1 -4.333-4.333v-2.325a4.338 4.338 0 0 1 4.333-4.333h28.7a4.338 4.338 0 0 1 4.331 4.333zm0-12.992v2.325a4.338 4.338 0 0 1 -4.333 4.334h-28.698a4.338 4.338 0 0 1 -4.333-4.334v-2.325a4.338 4.338 0 0 1 4.333-4.333h28.7a4.338 4.338 0 0 1 4.331 4.333zm0-10.667a4.339 4.339 0 0 1 -4.333 4.334h-28.698a4.339 4.339 0 0 1 -4.333-4.334v-2.325a4.338 4.338 0 0 1 4.333-4.333h28.7a4.338 4.338 0 0 1 4.333 4.333z"/></g><path d="m100.285 80.463a1.723 1.723 0 1 0 1.723 1.723 1.724 1.724 0 0 0 -1.723-1.723z" fill="#ffd7e5"/><path d="m106.443 80.463a1.723 1.723 0 1 0 1.723 1.723 1.723 1.723 0 0 0 -1.723-1.723z" fill="#ffd7e5"/></svg>