<svg width="65" height="64" viewBox="0 0 65 64" fill="none" xmlns="http://www.w3.org/2000/svg">
<g clip-path="url(#clip0_327_1899)">
<path d="M64.1875 49.59C61.8595 50.182 60.4195 49.616 59.1275 47.676L49.9395 34.964L48.6115 33.204L37.8815 47.718C36.6555 49.464 35.3695 50.224 33.0815 49.606L46.8215 31.162L34.0295 14.502C36.2295 14.074 37.7495 14.292 39.0995 16.262L48.6295 29.132L58.2295 16.332C59.4595 14.586 60.7815 13.922 62.9895 14.566L58.0295 21.142L51.3095 29.892C50.5095 30.892 50.6195 31.576 51.3555 32.542L64.1875 49.59ZM0.2035 30.854L1.3275 25.326C4.3875 14.386 16.9275 9.84002 25.5755 16.6C30.6295 20.576 31.8855 26.2 31.6355 32.5H3.1475C2.7195 43.84 10.8815 50.684 21.2875 47.192C24.9375 45.966 27.0875 43.108 28.1635 39.532C28.7095 37.74 29.6135 37.46 31.2975 37.972C30.4375 42.444 28.4975 46.18 24.3975 48.518C18.2715 52.018 9.5275 50.886 4.9275 46.022C2.1875 43.2 1.0555 39.624 0.5475 35.8C0.4675 35.168 0.3075 34.566 0.1875 33.96C0.198167 32.9254 0.2035 31.8907 0.2035 30.856V30.854ZM3.1995 30.094H28.9435C28.7755 21.894 23.6695 16.07 16.6915 16.02C9.0315 15.96 3.5315 21.646 3.1995 30.094Z" fill="#F9FAFB"/>
</g>
<defs>
<clipPath id="clip0_327_1899">
<rect width="64" height="64" fill="white" transform="translate(0.1875)"/>
</clipPath>
</defs>
</svg>
