<svg width="65" height="64" viewBox="0 0 65 64" fill="none" xmlns="http://www.w3.org/2000/svg">
<g clip-path="url(#clip0_327_1884)">
<mask id="mask0_327_1884" style="mask-type:alpha" maskUnits="userSpaceOnUse" x="0" y="0" width="65" height="64">
<path d="M32.4399 64C50.1131 64 64.4399 49.6731 64.4399 32C64.4399 14.3269 50.1131 0 32.4399 0C14.7668 0 0.439941 14.3269 0.439941 32C0.439941 49.6731 14.7668 64 32.4399 64Z" fill="black"/>
</mask>
<g mask="url(#mask0_327_1884)">
<path d="M32.4402 62.9333C49.5242 62.9333 63.3735 49.084 63.3735 32C63.3735 14.916 49.5242 1.06665 32.4402 1.06665C15.3562 1.06665 1.50684 14.916 1.50684 32C1.50684 49.084 15.3562 62.9333 32.4402 62.9333Z" fill="black" stroke="white" stroke-width="6"/>
<path d="M53.5985 56.0071L25.024 19.2H19.6401V44.7893H23.9472V24.6697L50.2176 58.6115C51.403 57.8183 52.5322 56.9475 53.5985 56.0071Z" fill="url(#paint0_linear_327_1884)"/>
<path d="M45.5958 19.2H41.3291V44.8H45.5958V19.2Z" fill="url(#paint1_linear_327_1884)"/>
</g>
</g>
<defs>
<linearGradient id="paint0_linear_327_1884" x1="39.1957" y1="41.4222" x2="51.8179" y2="57.0666" gradientUnits="userSpaceOnUse">
<stop stop-color="white"/>
<stop offset="1" stop-color="white" stop-opacity="0"/>
</linearGradient>
<linearGradient id="paint1_linear_327_1884" x1="43.4624" y1="19.2" x2="43.391" y2="38" gradientUnits="userSpaceOnUse">
<stop stop-color="white"/>
<stop offset="1" stop-color="white" stop-opacity="0"/>
</linearGradient>
<clipPath id="clip0_327_1884">
<rect width="64" height="64" fill="white" transform="translate(0.439941)"/>
</clipPath>
</defs>
</svg>
